<svg width="41" height="41" viewBox="0 0 41 41" fill="none" xmlns="http://www.w3.org/2000/svg">
<rect x="0.524902" y="0.988281" width="40" height="40" rx="20" fill="#D9D8F7"/>
<g clip-path="url(#clip0_1262_2816)">
<path d="M15.7291 22.655C15.0791 22.655 14.5066 22.9858 14.1707 23.4883H19.2749C19.8274 23.4883 20.3573 23.7078 20.748 24.0985C21.1387 24.4892 21.3582 25.0191 21.3582 25.5717V28.905C21.3582 29.0392 21.3457 29.1717 21.3207 29.2983C23.7699 29.1433 25.6007 28.2567 26.7624 26.6258C27.0393 26.2376 27.1881 25.7727 27.1882 25.2958V24.5292C27.1882 24.0321 26.9908 23.5554 26.6393 23.2039C26.2878 22.8525 25.8111 22.655 25.3141 22.655H15.7291ZM20.5249 12.6592C19.9777 12.6592 19.4359 12.767 18.9304 12.9763C18.4249 13.1857 17.9655 13.4927 17.5786 13.8796C17.1917 14.2665 16.8848 14.7258 16.6754 15.2313C16.466 15.7369 16.3582 16.2787 16.3582 16.8258C16.3582 17.373 16.466 17.9148 16.6754 18.4204C16.8848 18.9259 17.1917 19.3852 17.5786 19.7721C17.9655 20.159 18.4249 20.4659 18.9304 20.6753C19.4359 20.8847 19.9777 20.9925 20.5249 20.9925C21.63 20.9925 22.6898 20.5535 23.4712 19.7721C24.2526 18.9907 24.6916 17.9309 24.6916 16.8258C24.6916 15.7208 24.2526 14.661 23.4712 13.8796C22.6898 13.0982 21.63 12.6592 20.5249 12.6592ZM20.5249 25.5717C20.5249 25.2402 20.3932 24.9222 20.1588 24.6878C19.9244 24.4534 19.6064 24.3217 19.2749 24.3217H12.6082C12.2767 24.3217 11.9588 24.4534 11.7243 24.6878C11.4899 24.9222 11.3582 25.2402 11.3582 25.5717V28.905C11.3582 29.2365 11.4899 29.5545 11.7243 29.7889C11.9588 30.0233 12.2767 30.155 12.6082 30.155H19.2749C19.6064 30.155 19.9244 30.0233 20.1588 29.7889C20.3932 29.5545 20.5249 29.2365 20.5249 28.905V25.5717ZM12.1916 25.9883C12.4126 25.9883 12.6245 25.9005 12.7808 25.7443C12.9371 25.588 13.0249 25.376 13.0249 25.155H13.8582C13.8582 25.597 13.6826 26.021 13.3701 26.3335C13.0575 26.6461 12.6336 26.8217 12.1916 26.8217V25.9883ZM12.1916 27.655C12.6336 27.655 13.0575 27.8306 13.3701 28.1432C13.6826 28.4557 13.8582 28.8797 13.8582 29.3217H13.0249C13.0249 29.1007 12.9371 28.8887 12.7808 28.7324C12.6245 28.5761 12.4126 28.4883 12.1916 28.4883V27.655ZM18.8582 25.155C18.8582 25.376 18.946 25.588 19.1023 25.7443C19.2586 25.9005 19.4706 25.9883 19.6916 25.9883V26.8217C19.2495 26.8217 18.8256 26.6461 18.5131 26.3335C18.2005 26.021 18.0249 25.597 18.0249 25.155H18.8582ZM18.0249 29.3217C18.0249 28.8797 18.2005 28.4557 18.5131 28.1432C18.8256 27.8306 19.2495 27.655 19.6916 27.655V28.4883C19.4706 28.4883 19.2586 28.5761 19.1023 28.7324C18.946 28.8887 18.8582 29.1007 18.8582 29.3217H18.0249ZM14.4832 27.2383C14.4832 26.8516 14.6369 26.4806 14.9104 26.2071C15.1839 25.9337 15.5548 25.78 15.9416 25.78C16.3283 25.78 16.6993 25.9337 16.9728 26.2071C17.2463 26.4806 17.3999 26.8516 17.3999 27.2383C17.3999 27.6251 17.2463 27.9961 16.9728 28.2695C16.6993 28.543 16.3283 28.6967 15.9416 28.6967C15.5548 28.6967 15.1839 28.543 14.9104 28.2695C14.6369 27.9961 14.4832 27.6251 14.4832 27.2383Z" fill="#403BD7"/>
</g>
<defs>
<clipPath id="clip0_1262_2816">
<rect width="20" height="20" fill="white" transform="matrix(-1 0 0 1 30.5249 10.9883)"/>
</clipPath>
</defs>
</svg>
